# xmcd
#
# Track frame offsets:
#	150
#	11542
#	35350
#	53985
#	65985
#	83335
#	92512
#	108892
#	125632
#	144055
#	159867
#	177875
#	187347
#	199895
#	208582
#	228625
#	235640
#
# Disc length: 3456 seconds
#
# Revision: 1
# Processed by: cddbd v1.5.1PL0 Copyright (c) Steve Scherf et al.
# Submitted via: CDex 1.50Beta5
#
DISCID=de0d7e11
DTITLE=吉川 洋一郎 - THE MIRACLE PLANET
DYEAR=1900
DGENRE=Soundtrack
TTITLE0=The Miracle Planet
TTITLE1=K.2
TTITLE2=オーロラヴェール
TTITLE3=パタゴニア (Short Version)
TTITLE4=キプロス
TTITLE5=ヌーベ
TTITLE6=380 Million on the Earth
TTITLE7=火の祭典
TTITLE8=アクアクの夢
TTITLE9=Tassili N'Ajjer
TTITLE10=午前4時の木精
TTITLE11=クレーター オン ザ ムーン (Short Version)
TTITLE12=トラバーチン (Short Version)
TTITLE13=熱帯群蝶図 I
TTITLE14=NEBRASKA
TTITLE15=The Milacle Planet on Strings
TTITLE16=桂林 -RIMIX-
EXTD=
EXTT0=
EXTT1=
EXTT2=
EXTT3=
EXTT4=
EXTT5=
EXTT6=
EXTT7=
EXTT8=
EXTT9=
EXTT10=
EXTT11=
EXTT12=
EXTT13=
EXTT14=
EXTT15=
EXTT16=
PLAYORDER=
